<svg width="232" height="93" viewBox="0 0 232 93" fill="none" xmlns="http://www.w3.org/2000/svg">
<path d="M83.3698 49.7757C83.5798 50.9657 83.4098 52.7157 82.9898 54.4157C82.3698 56.6157 81.6998 58.8357 80.8098 60.9357C82.7198 56.6557 83.8798 51.9957 83.7898 48.1157C83.7098 48.6857 83.4598 49.2257 83.3698 49.7857" fill="#004282"/>
<path d="M86.24 60.8058C86.51 60.2058 86.93 58.9657 87.16 58.3557C87.2 57.9457 87.24 57.5457 87.28 57.1357C87.07 57.7057 86.85 58.2857 86.63 58.8557C86.5 59.5057 86.41 60.1658 86.24 60.8058Z" fill="#004282"/>
<path d="M87.51 52.9958C87.55 52.5758 87.58 52.1658 87.62 51.7558C87.64 51.3358 87.66 50.9258 87.7 50.5158C88.13 46.7358 88.12 42.3058 87.62 38.5758C87.38 39.2258 87.13 37.3658 86.97 37.3958C86.83 36.9458 86.69 36.4858 86.57 36.0158C86.51 35.7858 86.45 35.5458 86.39 35.3058C86.32 35.0758 86.24 34.8358 86.16 34.5958C85.86 33.6458 85.59 32.6658 85.32 31.6658C85.04 30.6658 84.65 29.6858 84.32 28.6758C84.14 28.1758 83.99 27.6558 83.79 27.1658L83.13 25.6958C82.88 25.1458 83.02 25.0758 82.88 24.4358C82.64 24.1458 82.4 23.8458 82.17 23.5358C81.91 23.2458 81.66 22.9458 81.39 22.6458C80.87 22.0358 80.37 21.4058 79.87 20.7558C79.4 20.0758 78.79 19.4758 78.25 18.8158C77.71 18.1558 77.15 17.4858 76.59 16.8058C75.99 16.1658 75.37 15.5158 74.75 14.8558C74.44 14.5258 74.14 14.1858 73.83 13.8558C73.5 13.5358 73.16 13.2358 72.82 12.9258C72.14 12.3058 71.46 11.6758 70.78 11.0558C70.06 10.4758 69.31 9.92578 68.58 9.36578L67.43 8.55579L66.21 7.83579C65.4 7.34579 64.59 6.85577 63.76 6.35577C64.58 6.78577 65.38 7.28578 66.2 7.76578C66.61 8.01578 67.01 8.25577 67.42 8.50577L68.57 9.36578C69.43 9.99578 70.35 10.5458 71.17 11.2158C72 11.8858 72.82 12.5458 73.64 13.2158C74.46 13.8858 75.18 14.6558 75.96 15.3758L77.11 16.4758L78.16 17.6658C71.47 9.73577 62.6 4.53579 52.8 2.62579C48.11 1.74579 43.43 1.82577 39.02 2.66577C34.62 3.51577 30.44 5.04579 26.74 7.30579C25.95 7.69579 25.23 8.21578 24.49 8.67578C23.76 9.15578 22.98 9.56578 22.27 10.0758L20.14 11.6058C19.79 11.8658 19.41 12.0958 19.08 12.3758L18.08 13.2258C18.23 12.9558 18.38 12.6758 18.52 12.4058C17.68 13.1158 16.86 13.8258 16.04 14.5458C15.28 15.3158 14.56 16.1358 13.84 16.9358C13.08 17.7158 12.51 18.6558 11.87 19.5358C11.56 19.9858 11.25 20.4458 10.93 20.8958C10.67 21.3858 10.4 21.8658 10.13 22.3658C9.94 22.7258 9.75 23.0758 9.56 23.4358C7.52 27.5758 6.27 31.6658 5.56 35.8458C5.42 36.8958 5.28 37.9458 5.14 39.0058C5.09 40.0758 5.05 41.1458 5 42.2258C5.02 44.3958 5.09 46.6158 5.47 48.8858C5.56 49.4458 5.61 50.0058 5.75 50.5558L6.19 52.1958L6.64 53.8258C6.81 54.3658 7.02 54.8858 7.2 55.4258C7.9 56.9558 7.92001 54.0258 8.96001 56.5658C8.96001 56.4158 8.96 56.2558 8.98 56.1158C8.55 55.1758 8.1 54.2958 7.81 53.5558C7.57 52.7958 7.44001 52.2058 7.54001 51.8858C7.72001 51.5558 8 51.8558 8.34 52.4558C9.63 57.4458 11.98 62.2358 15.43 66.5058C16.99 68.4358 18.71 70.1658 20.55 71.6958C20.06 71.5958 19.59 71.4858 19.12 71.3958C19.53 71.7458 19.94 72.1058 20.37 72.4358C20.82 72.7358 21.28 73.0258 21.72 73.3158C22.62 73.8858 23.47 74.4558 24.35 74.8258C24.11 74.7458 24.06 74.8758 24.01 74.9558C25.31 75.6758 26.39 76.3558 27.61 76.7758C28.8 77.2458 29.98 77.7858 31.43 78.2458C27.05 77.6058 22.17 74.8658 18.18 71.2358C17.84 71.1858 17.51 71.1558 17.21 71.1558C21.22 75.2158 26.33 78.2858 31.81 79.9658L32.83 80.2958C33.18 80.3958 33.53 80.4558 33.88 80.5358L35.97 80.9858C36.66 81.1658 37.38 81.1858 38.08 81.2858L40.19 81.5058C41.61 81.5058 43.01 81.5658 44.41 81.4858L46.49 81.2758L47.52 81.1658C47.86 81.1158 48.2 81.0358 48.54 80.9658C47.63 81.2258 46.71 81.3158 45.78 81.4758C44.85 81.6158 43.92 81.7958 42.98 81.8258C38.48 82.1258 33.51 81.2858 28.85 79.3858C24.18 77.4958 19.85 74.6058 16.23 71.2458C15.68 71.3758 15.3 71.6958 15.21 72.3058C18.96 76.4358 23.83 79.5258 29.05 81.4458C34.28 83.3858 39.83 84.2058 45.37 84.1958L45.63 84.1358C46.22 83.9958 46.85 83.8658 47.51 83.7458C48.17 83.6358 48.86 83.4258 49.58 83.2858C50.29 83.1358 51.04 82.9758 51.79 82.8158C52.53 82.6058 53.3 82.3858 54.07 82.1658C55.62 81.7958 57.12 81.0958 58.59 80.5158C58.96 80.3758 59.32 80.1958 59.66 79.9958C60 79.8058 60.34 79.6158 60.68 79.4258C61.35 79.0458 61.99 78.6658 62.58 78.2658C67.15 74.7558 71.24 70.8558 73.93 66.0558C69.16 72.1758 62.88 76.9358 55.4 78.9658C53.22 79.8358 50.93 80.5258 48.55 80.9458C49.52 80.6958 50.5 80.4958 51.47 80.2158C52.42 79.8958 52.37 79.5958 51.38 79.7658C51.38 79.7658 55.49 78.7058 55.99 78.5458C55.43 78.7758 54.9 79.0758 54.34 79.2458C54.7 79.1958 55.05 79.0758 55.39 78.9758C56.09 78.6658 56.78 78.3658 57.47 78.0658C56.98 78.2258 56.49 78.3858 56 78.5458C56.61 78.3058 57.2 78.0258 57.79 77.7358C58.26 77.5558 58.72 77.3558 59.19 77.1558C58.63 77.4758 58.07 77.8258 57.47 78.0658C63.18 76.1158 68.7 72.4058 72.23 67.6158C72.97 66.7758 73.67 65.9058 74.33 65.0058C74.24 65.2858 73.74 65.9258 73.93 66.0658C73.75 66.4358 73.59 66.8258 73.38 67.1858C73.17 67.5358 72.95 67.8958 72.74 68.2458C72.31 68.9658 71.87 69.6658 71.45 70.3558C70.96 71.0058 70.47 71.6358 70.01 72.2458C69.52 72.8458 69.1 73.4958 68.58 73.9758C67.77 74.7758 66.91 75.5258 66.03 76.2558C65.1 76.9058 64.15 77.5158 63.22 78.1258C62.76 78.4458 62.28 78.7058 61.79 78.9658C61.31 79.2258 60.84 79.4958 60.37 79.7758C59.9 80.0458 59.46 80.3558 58.99 80.6158C58.53 80.8658 58.07 81.1358 57.63 81.4158C57.13 81.7458 56.31 82.1058 55.4 82.3858C54.48 82.6258 53.47 82.8658 52.63 83.1458C51.94 83.4958 51.15 83.7258 50.35 83.9658L51.67 83.8658C52.11 83.8358 52.55 83.7458 52.98 83.6858C53.06 83.6858 52.89 83.7558 52.53 83.8858C52.35 83.9458 52.13 84.0258 51.86 84.1058C51.59 84.1658 51.28 84.2358 50.94 84.3158C50.25 84.4658 49.44 84.6358 48.57 84.8258C48.13 84.9358 47.67 84.9958 47.2 85.0458C46.73 85.1058 46.25 85.1558 45.77 85.2158C43.85 85.5158 41.91 85.4858 40.47 85.5958C39.75 85.6658 39.17 85.6258 38.77 85.6658C38.38 85.6958 38.18 85.7458 38.24 85.8358C38.24 85.8558 38.45 85.8958 38.83 85.9458C39.21 85.9958 39.77 86.0858 40.48 86.0858C41.89 86.1058 43.87 86.2258 46.13 85.9758C46.69 85.9258 47.28 85.8858 47.87 85.8358C48.46 85.7658 49.07 85.6458 49.68 85.5458C50.91 85.3258 52.18 85.1558 53.42 84.7758C55.93 84.1858 58.38 83.2758 60.57 82.4058C61.5 82.2558 61.39 82.9658 60.86 83.8158C60.33 84.6558 59.33 85.5058 58.74 85.8058C58.62 85.8958 58.47 85.9858 58.34 86.0758C59.77 85.6258 61.22 85.2058 62.56 84.5658L64.12 83.7158C64.64 83.4358 65.16 83.1558 65.64 82.8158C66.62 82.1558 67.6 81.4958 68.58 80.8358C69.35 80.2758 70.06 79.6458 70.8 79.0458C71.52 78.4258 72.29 77.8658 72.93 77.1658C74.26 75.8058 75.64 74.5158 76.79 72.9858C76.21 73.8258 75.64 74.6958 74.97 75.4658C74.68 75.8558 74.35 76.2558 74.02 76.6558C72.73 78.3058 70.94 79.6758 69.06 81.1158C68.06 81.7458 67.02 82.3658 65.95 82.9758C65.68 83.1258 65.42 83.2858 65.14 83.4258L64.29 83.8158C63.72 84.0658 63.14 84.3158 62.56 84.5758C61.96 84.8858 61.38 85.2458 60.76 85.5058L58.91 86.3058L57.05 87.0958L55.15 87.7158C55.75 87.4658 56.33 87.2158 56.87 86.9658C57.41 86.6858 57.9 86.3758 58.34 86.0858L56.99 86.5058C56.54 86.6358 56.07 86.7158 55.61 86.8258C54.69 87.0358 53.77 87.2358 52.86 87.4458C51.47 87.9358 50.3 88.2258 49.38 88.4758C48.46 88.7358 46.22 89.4258 45.4 89.8058C45.58 89.8058 45.76 89.7958 45.94 89.7858C46.71 89.6758 47.49 89.5758 48.27 89.4658C49.04 89.3158 49.81 89.1358 50.58 88.9658C51.35 88.7858 52.12 88.6258 52.88 88.4358C53.63 88.1958 54.38 87.9558 55.14 87.7158C55.07 87.7458 55.02 87.7658 54.96 87.7958C55.79 87.5858 56.64 87.4358 57.46 87.1858L59.92 86.3958C61.59 85.9258 63.14 85.1558 64.72 84.4958C70.15 81.3458 74.93 77.1258 78.71 72.1058C78.12 72.9758 77.53 73.8358 76.94 74.7058C74.4 78.4858 69.96 82.0558 64.72 84.4958C59.55 87.5158 53.83 89.5258 48.03 90.5158C51.98 90.1358 56.51 89.3258 60.13 87.7558C61.99 87.0758 63.69 86.0758 65.4 85.1958C66.26 84.7658 67.03 84.1758 67.83 83.6658C68.62 83.1258 69.43 82.6358 70.17 82.0658C73.13 79.7458 75.85 77.2658 78.12 74.4258C82.7 68.8158 85.89 62.3458 87.35 55.5558C87.38 54.6958 87.41 53.8458 87.48 53.0058M49.7 3.87579C50.45 3.83579 51.31 3.8258 52.22 3.8458C55.84 4.1058 60.27 5.41578 62.34 6.54578C63.68 7.14578 64.94 8.01577 66.3 8.78577C66.99 9.15577 67.62 9.64579 68.28 10.0858C68.94 10.5358 69.6 10.9958 70.27 11.4558C70.9 11.9658 71.53 12.4758 72.16 12.9858C72.78 13.5058 73.46 13.9758 74.03 14.5558C74.62 15.1158 75.21 15.6658 75.8 16.2258C76.09 16.5058 76.4 16.7658 76.68 17.0558C76.95 17.3558 77.22 17.6458 77.48 17.9358C77.15 20.7358 73.21 14.6258 66.29 10.0358C62.84 7.77577 58.72 6.00578 55.08 5.20578C54.16 5.03578 53.29 4.88578 52.47 4.76578C51.65 4.66578 50.86 4.69578 50.16 4.70578C49.46 4.72578 48.96 3.90579 49.71 3.87579M76.06 69.9558C75.2 71.0758 74.38 71.9958 73.49 72.7658C74.13 72.0758 74.72 71.3158 75.34 70.5858L76.26 69.4758C76.55 69.0958 76.81 68.6858 77.09 68.2958C76.75 68.8658 76.44 69.4558 76.05 69.9658M81.2 60.9858L80.66 62.2758C80.47 62.7058 80.23 63.0958 80.02 63.5158L78.68 65.9758C78.16 66.7458 77.63 67.5158 77.11 68.2858C77.77 67.1158 78.53 65.9958 79.09 64.7258C79.68 63.4758 80.35 62.2658 80.81 60.9258C78.77 65.5858 75.77 69.6758 73.32 72.9058L73.49 72.7658C73.36 72.8958 73.24 73.0158 73.12 73.1358C73.19 73.0558 73.25 72.9758 73.32 72.8958C72.62 73.4358 71.91 73.9458 71.18 74.4658C70.81 74.7158 70.46 75.0158 70.04 75.2658C69.63 75.5158 69.21 75.7858 68.78 76.0658L68.4 76.5458L68.11 76.1458C68.56 75.6358 69.04 75.1558 69.53 74.6758C70.03 74.1958 70.48 73.6458 70.99 73.1458C71.49 72.6358 72.01 72.1358 72.53 71.6358C73.03 71.1058 73.51 70.5458 74.01 70.0058C74.5 69.4558 75.03 68.9258 75.5 68.3458L76.84 66.5458C77.77 65.3758 78.44 64.0358 79.08 62.7458C80.59 59.3158 81.94 55.6758 82.46 51.8758C82.66 50.9458 82.71 49.9858 82.78 49.0458C82.83 48.0958 82.95 47.1658 82.87 46.2258C82.83 45.2858 82.78 44.3558 82.72 43.4458C82.58 42.5358 82.41 41.6358 82.24 40.7558C82.19 40.4858 82.16 40.1758 82.13 39.8558C82.09 39.5358 82.05 39.1958 82.01 38.8558C81.94 38.1758 81.89 37.4958 81.81 36.9558C82.06 37.8858 82.33 38.7858 82.6 39.6858C82.8 40.5958 82.99 41.4958 83.19 42.3858C83.42 43.2958 83.51 44.2158 83.61 45.1558C83.69 46.0958 83.85 47.0758 83.78 48.0858C83.78 48.9058 83.78 49.7458 83.75 50.5958C83.74 51.4558 83.56 52.2958 83.45 53.1658C83.25 54.9258 82.71 56.6358 82.2 58.3958C81.93 59.2658 81.54 60.1058 81.2 60.9658" fill="#004282"/>
<path d="M88.0099 36.6057C87.8199 35.9957 87.6199 35.2157 87.2699 34.4857C86.9499 33.7457 86.6499 33.0058 86.5099 32.3958C84.8999 26.6558 81.8599 21.7258 78.1899 17.6558C79.8999 19.6458 81.3999 21.8657 82.7799 24.2357L82.89 24.4358C88.24 34.0258 89.7399 45.1657 87.3799 55.5357C87.3799 56.0757 87.3299 56.5958 87.2699 57.1258C89.6799 50.3358 89.8299 42.8458 88.0099 36.5958" fill="#004282"/>
<path d="M48.7601 41.1758C48.2001 42.7358 47.5201 44.2358 46.7401 45.6758C45.6501 47.6658 44.3601 49.5358 42.9001 51.2458C37.0301 58.0858 28.3301 62.4259 18.6101 62.4659C18.1101 62.4659 17.6101 62.4659 17.1101 62.4359C16.8401 62.4259 16.5701 62.4058 16.3101 62.3958C15.8701 63.7258 15.5101 65.0958 15.2501 66.4958C15.1301 67.1558 15.0201 67.8158 14.9401 68.4858C15.2001 68.5058 15.4601 68.5258 15.7201 68.5458C16.6801 68.6158 17.6601 68.6458 18.6401 68.6458C29.7901 68.6058 39.8101 63.8059 46.7801 56.1859C46.7401 56.1459 46.7101 56.1059 46.6701 56.0659C46.6701 56.0659 46.7401 56.1459 46.7801 56.1859C48.1901 54.6459 49.4801 52.9858 50.6201 51.2258C52.4401 48.4358 53.9001 45.4059 54.9401 42.1859C52.9501 41.6559 50.8801 41.3159 48.7601 41.1859V41.1758ZM50.4701 9.17584C49.5701 10.2258 48.7301 11.3358 47.9701 12.4958C47.4901 13.2258 47.0501 13.9658 46.6301 14.7358C49.1701 19.3158 50.6301 24.5859 50.6501 30.1859C50.6501 31.3259 50.6001 32.4458 50.4901 33.5458C52.5801 33.7358 54.6101 34.0958 56.5901 34.6058C56.7501 33.1458 56.8301 31.6658 56.8301 30.1658C56.8001 22.4058 54.4701 15.1858 50.4801 9.17584M51.1601 51.8159C50.0101 53.5559 48.7201 55.2058 47.3101 56.7458C54.3201 63.9858 64.1401 68.4759 75.0101 68.4359C76.2601 68.4359 77.4901 68.3658 78.7001 68.2458C78.4301 66.1458 77.9501 64.1158 77.2901 62.1658C76.5301 62.2258 75.7601 62.2558 74.9901 62.2558C65.5601 62.2858 57.0601 58.2659 51.1601 51.8159ZM46.5801 4.24585C45.1701 5.78585 43.8801 7.44584 42.7401 9.20584C42.5901 9.43584 42.4501 9.66583 42.3001 9.88583C38.6201 15.7958 36.5101 22.7758 36.5401 30.2458C36.5401 32.0158 36.6701 33.7559 36.9101 35.4659C37.2001 37.5359 37.6501 39.5558 38.2601 41.5058C39.2601 44.7258 40.6801 47.7759 42.4501 50.5659C43.9301 48.8159 45.2201 46.9058 46.2901 44.8658C45.5601 43.4458 44.9301 41.9758 44.4101 40.4458C43.7501 38.4958 43.2701 36.4658 43.0001 34.3658C42.8201 33.0158 42.7301 31.6358 42.7201 30.2358C42.7001 24.9658 43.9501 19.9758 46.1901 15.5758C46.3301 15.2958 46.4801 15.0258 46.6201 14.7458C47.7101 12.7558 49.0001 10.8859 50.4601 9.18585C49.3001 7.43585 48.0001 5.78583 46.5801 4.25583V4.24585ZM36.1601 35.6758C23.7201 39.2758 13.8901 49.0059 10.1501 61.3759C9.56009 63.3259 9.12009 65.3458 8.84009 67.4158C10.8101 67.9258 12.8501 68.2858 14.9301 68.4758C15.1901 66.3758 15.6501 64.3458 16.3001 62.3858C19.5701 52.4958 27.5101 44.7359 37.5101 41.7159C36.9101 39.7659 36.4501 37.7458 36.1501 35.6758H36.1601ZM46.7001 34.1658C45.7201 34.1658 44.7401 34.2058 43.7801 34.2858C44.0601 36.3958 44.5501 38.4258 45.2301 40.3858C45.7301 40.3658 46.2301 40.3459 46.7301 40.3459C47.5001 40.3459 48.2701 40.3658 49.0301 40.4158C51.1501 40.5558 53.2001 40.9059 55.1901 41.4359C65.3001 44.1459 73.4601 51.6659 77.0401 61.4059C77.1401 61.6559 77.2201 61.9158 77.3101 62.1658C77.9701 64.1158 78.4501 66.1458 78.7301 68.2458C80.8101 68.0358 82.8401 67.6658 84.8101 67.1358C84.5201 65.0658 84.0701 63.0558 83.4601 61.1058C83.3801 60.8558 83.3001 60.6158 83.2201 60.3658C79.1501 48.1358 69.0701 38.6558 56.5101 35.3958C54.5401 34.8858 52.5001 34.5258 50.4201 34.3358C49.2001 34.2258 47.9701 34.1658 46.7201 34.1758" fill="white"/>
<path d="M66.6998 45.7257C66.6998 56.8157 57.7098 65.7957 46.6298 65.7957C35.5498 65.7957 26.5598 56.8057 26.5598 45.7257C26.5598 34.6457 35.5498 25.6558 46.6298 25.6558C57.7098 25.6558 66.6998 34.6457 66.6998 45.7257Z" fill="white"/>
<path fill-rule="evenodd" clip-rule="evenodd" d="M38.1399 24.8757L59.5399 34.2457V55.9757H50.0899V42.0757H55.1599V34.8057L38.1399 36.5257V24.8757Z" fill="#8C8F90"/>
<path fill-rule="evenodd" clip-rule="evenodd" d="M43.2099 42.0759V55.9759H50.0899V58.8459H31.6599V37.2959L38.1399 36.5259V42.0759H43.2099Z" fill="#6F2C91"/>
<path d="M47.42 37.8958H45V37.4358H47.99V37.8158L45.98 41.8758H45.43L47.42 37.8958Z" fill="#D1D3D4"/>
<path d="M47.0499 47.0658H44.7298L44.5999 46.7057L47.0898 43.6558H47.5199V46.6458H48.2099V47.0658H47.5199V48.1158H47.0399V47.0658H47.0499ZM47.0499 46.6458V44.3658L45.1998 46.6458H47.0499Z" fill="#D1D3D4"/>
<path d="M46.45 50.4157L45.62 50.6758L45.5 50.2657L46.58 49.8958H46.94V54.3557H46.45V50.4157Z" fill="#D1D3D4"/>
<path d="M112.64 60.4298V48.6998H108V45.3098H121.54V48.6998H116.92V60.4298H112.64Z" fill="white"/>
<path d="M122.76 60.4298V45.3098H129.65C131.03 45.3098 132.23 45.5298 133.23 45.9798C134.24 46.4298 135.01 47.0698 135.55 47.9098C136.09 48.7498 136.36 49.7398 136.36 50.8798C136.36 52.0198 136.09 53.0398 135.55 53.8598C135.01 54.6798 134.23 55.3098 133.23 55.7498C132.22 56.1898 131.03 56.4098 129.65 56.4098H125.11L127.03 54.5998V60.4298H122.75H122.76ZM127.04 55.0898L125.12 53.0998H129.4C130.29 53.0998 130.96 52.9098 131.41 52.5198C131.86 52.1298 132.08 51.5798 132.08 50.8798C132.08 50.1798 131.86 49.6698 131.41 49.2698C130.96 48.8698 130.29 48.6798 129.4 48.6798H125.12L127.04 46.7098V55.0898ZM132.09 60.4298L128.33 54.9198H132.89L136.67 60.4298H132.09Z" fill="white"/>
<path d="M136.84 60.4298L143.51 45.3098H147.72L154.42 60.4298H149.97L144.74 47.4098H146.42L141.19 60.4298H136.83H136.84ZM140.49 57.4698L141.59 54.3398H148.98L150.08 57.4698H140.49Z" fill="white"/>
<path d="M155 60.4298V57.7298L163.87 47.1698L164.39 48.6998H155.17V45.3098H168.19V48.0098L159.29 58.5698L158.78 57.0398H168.52V60.4298H155Z" fill="white"/>
<path d="M173.76 57.0998H181.67V60.4298H169.55V45.3098H181.39V48.6398H173.77V57.1098L173.76 57.0998ZM173.46 51.1598H180.48V54.3298H173.46V51.1598Z" fill="white"/>
<path d="M183.2 60.4298V45.3098H186.72L195.04 55.3698H193.38V45.3098H197.57V60.4298H194.05L185.71 50.3598H187.37V60.4298H183.2Z" fill="white"/>
<path d="M198.95 60.4298V45.3098H206.1C207.75 45.3098 209.22 45.6198 210.48 46.2398C211.75 46.8598 212.74 47.7298 213.45 48.8498C214.16 49.9698 214.52 51.2998 214.52 52.8398C214.52 54.3798 214.16 55.7398 213.45 56.8698C212.74 57.9998 211.75 58.8798 210.48 59.4898C209.21 60.1098 207.75 60.4198 206.1 60.4198H198.95V60.4298ZM203.23 57.0098H205.89C206.77 57.0098 207.53 56.8398 208.17 56.5098C208.81 56.1798 209.31 55.6998 209.67 55.0698C210.03 54.4398 210.21 53.7098 210.21 52.8598C210.21 52.0098 210.03 51.2398 209.67 50.6298C209.31 50.0198 208.81 49.5498 208.17 49.2098C207.53 48.8798 206.77 48.7098 205.89 48.7098H203.23V56.9998V57.0098Z" fill="white"/>
<path d="M213.64 60.4298L220.31 45.3098H224.52L231.22 60.4298H226.77L221.54 47.4098H223.22L217.99 60.4298H213.63H213.64ZM217.29 57.4698L218.39 54.3398H225.78L226.88 57.4698H217.29Z" fill="white"/>
<path d="M109.88 32.29V32.26C109.88 29.37 112.13 27 115.21 27C117.03 27 118.16 27.49 119.2 28.39L117.79 30.09C117.02 29.44 116.29 29.06 115.13 29.06C113.5 29.06 112.21 30.5 112.21 32.23V32.26C112.21 34.12 113.49 35.49 115.29 35.49C116.12 35.49 116.83 35.29 117.4 34.88V33.43H115.15V31.5H119.57V35.92C118.52 36.81 117.08 37.53 115.23 37.53C112.06 37.53 109.88 35.32 109.88 32.3" fill="white"/>
<path d="M137.98 27.1699H142.63C143.92 27.1699 144.91 27.5199 145.59 28.1999C146.17 28.7799 146.46 29.5499 146.46 30.5299V30.5599C146.46 32.1999 145.57 33.2299 144.28 33.7099L146.76 37.3399H144.14L141.96 34.0899H140.2V37.3399H137.96V27.1699H137.98ZM142.48 32.1099C143.58 32.1099 144.19 31.5399 144.19 30.6699V30.6399C144.19 29.6699 143.54 29.1899 142.43 29.1899H140.21V32.1099H142.48Z" fill="white"/>
<path d="M164.6 32.9899V27.1799H166.84V32.9299C166.84 34.5999 167.65 35.4399 169.03 35.4399C170.41 35.4399 171.22 34.6299 171.22 32.9999V27.1699H173.46V32.9099C173.46 35.9899 171.73 37.4999 169 37.4999C166.27 37.4999 164.6 35.9899 164.6 32.9799" fill="white"/>
<path d="M192.01 27.1699H196.16C198.59 27.1699 200.05 28.5899 200.05 30.6899V30.7199C200.05 33.0899 198.22 34.2899 195.94 34.2899H194.24V37.3399H192V27.1699H192.01ZM196.02 32.2999C197.14 32.2999 197.79 31.6299 197.79 30.7599V30.7299C197.79 29.7299 197.09 29.1899 195.97 29.1899H194.24V32.2999H196.01H196.02Z" fill="white"/>
<path d="M217.54 32.29V32.26C217.54 29.37 219.82 27 222.96 27C226.1 27 228.35 29.34 228.35 32.23V32.26C228.35 35.15 226.07 37.52 222.93 37.52C219.79 37.52 217.54 35.18 217.54 32.29ZM226.01 32.29V32.26C226.01 30.52 224.73 29.06 222.93 29.06C221.13 29.06 219.88 30.48 219.88 32.23V32.26C219.88 34 221.16 35.46 222.96 35.46C224.76 35.46 226.01 34.04 226.01 32.29Z" fill="white"/>
</svg>
