<svg width="233" height="95" viewBox="0 0 233 95" fill="none" xmlns="http://www.w3.org/2000/svg">
<path d="M94 1H1V94H94V1Z" fill="white" stroke="white" stroke-miterlimit="10"/>
<path d="M84.3698 50.7757C84.5798 51.9657 84.4098 53.7157 83.9898 55.4157C83.3698 57.6157 82.6998 59.8357 81.8098 61.9357C83.7198 57.6557 84.8798 52.9957 84.7898 49.1157C84.7098 49.6857 84.4598 50.2257 84.3698 50.7857" fill="#004282"/>
<path d="M87.24 61.8058C87.51 61.2058 87.93 59.9657 88.16 59.3557C88.2 58.9457 88.24 58.5457 88.28 58.1357C88.07 58.7057 87.85 59.2857 87.63 59.8557C87.5 60.5057 87.41 61.1658 87.24 61.8058Z" fill="#004282"/>
<path d="M88.51 53.9958C88.55 53.5758 88.58 53.1658 88.62 52.7558C88.64 52.3358 88.66 51.9258 88.7 51.5158C89.13 47.7358 89.12 43.3058 88.62 39.5758C88.38 40.2258 88.13 38.3658 87.97 38.3958C87.83 37.9458 87.69 37.4858 87.57 37.0158C87.51 36.7858 87.45 36.5458 87.39 36.3058C87.32 36.0758 87.24 35.8358 87.16 35.5958C86.86 34.6458 86.59 33.6658 86.32 32.6658C86.04 31.6658 85.65 30.6858 85.32 29.6758C85.14 29.1758 84.99 28.6558 84.79 28.1658L84.13 26.6958C83.88 26.1458 84.02 26.0758 83.88 25.4358C83.64 25.1458 83.4 24.8458 83.17 24.5358C82.91 24.2458 82.66 23.9458 82.39 23.6458C81.87 23.0358 81.37 22.4058 80.87 21.7558C80.4 21.0758 79.79 20.4758 79.25 19.8158C78.71 19.1558 78.15 18.4858 77.59 17.8058C76.99 17.1658 76.37 16.5158 75.75 15.8558C75.44 15.5258 75.14 15.1858 74.83 14.8558C74.5 14.5358 74.16 14.2358 73.82 13.9258C73.14 13.3058 72.46 12.6758 71.78 12.0558C71.06 11.4758 70.31 10.9258 69.58 10.3658L68.43 9.55579L67.21 8.83579C66.4 8.34579 65.59 7.85577 64.76 7.35577C65.58 7.78577 66.38 8.28578 67.2 8.76578C67.61 9.01578 68.01 9.25577 68.42 9.50577L69.57 10.3658C70.43 10.9958 71.35 11.5458 72.17 12.2158C73 12.8858 73.82 13.5458 74.64 14.2158C75.46 14.8858 76.18 15.6558 76.96 16.3758L78.11 17.4758L79.16 18.6658C72.47 10.7358 63.6 5.53579 53.8 3.62579C49.11 2.74579 44.43 2.82577 40.02 3.66577C35.62 4.51577 31.44 6.04579 27.74 8.30579C26.95 8.69579 26.23 9.21578 25.49 9.67578C24.76 10.1558 23.98 10.5658 23.27 11.0758L21.14 12.6058C20.79 12.8658 20.41 13.0958 20.08 13.3758L19.08 14.2258C19.23 13.9558 19.38 13.6758 19.52 13.4058C18.68 14.1158 17.86 14.8258 17.04 15.5458C16.28 16.3158 15.56 17.1358 14.84 17.9358C14.08 18.7158 13.51 19.6558 12.87 20.5358C12.56 20.9858 12.25 21.4458 11.93 21.8958C11.67 22.3858 11.4 22.8658 11.13 23.3658C10.94 23.7258 10.75 24.0758 10.56 24.4358C8.52 28.5758 7.27 32.6658 6.56 36.8458C6.42 37.8958 6.28 38.9458 6.14 40.0058C6.09 41.0758 6.05 42.1458 6 43.2258C6.02 45.3958 6.09 47.6158 6.47 49.8858C6.56 50.4458 6.61 51.0058 6.75 51.5558L7.19 53.1958L7.64 54.8258C7.81 55.3658 8.02 55.8858 8.2 56.4258C8.9 57.9558 8.92001 55.0258 9.96001 57.5658C9.96001 57.4158 9.96 57.2558 9.98 57.1158C9.55 56.1758 9.1 55.2958 8.81 54.5558C8.57 53.7958 8.44001 53.2058 8.54001 52.8858C8.72001 52.5558 9 52.8558 9.34 53.4558C10.63 58.4458 12.98 63.2358 16.43 67.5058C17.99 69.4358 19.71 71.1658 21.55 72.6958C21.06 72.5958 20.59 72.4858 20.12 72.3958C20.53 72.7458 20.94 73.1058 21.37 73.4358C21.82 73.7358 22.28 74.0258 22.72 74.3158C23.62 74.8858 24.47 75.4558 25.35 75.8258C25.11 75.7458 25.06 75.8758 25.01 75.9558C26.31 76.6758 27.39 77.3558 28.61 77.7758C29.8 78.2458 30.98 78.7858 32.43 79.2458C28.05 78.6058 23.17 75.8658 19.18 72.2358C18.84 72.1858 18.51 72.1558 18.21 72.1558C22.22 76.2158 27.33 79.2858 32.81 80.9658L33.83 81.2958C34.18 81.3958 34.53 81.4558 34.88 81.5358L36.97 81.9858C37.66 82.1658 38.38 82.1858 39.08 82.2858L41.19 82.5058C42.61 82.5058 44.01 82.5658 45.41 82.4858L47.49 82.2758L48.52 82.1658C48.86 82.1158 49.2 82.0358 49.54 81.9658C48.63 82.2258 47.71 82.3158 46.78 82.4758C45.85 82.6158 44.92 82.7958 43.98 82.8258C39.48 83.1258 34.51 82.2858 29.85 80.3858C25.18 78.4958 20.85 75.6058 17.23 72.2458C16.68 72.3758 16.3 72.6958 16.21 73.3058C19.96 77.4358 24.83 80.5258 30.05 82.4458C35.28 84.3858 40.83 85.2058 46.37 85.1958L46.63 85.1358C47.22 84.9958 47.85 84.8658 48.51 84.7458C49.17 84.6358 49.86 84.4258 50.58 84.2858C51.29 84.1358 52.04 83.9758 52.79 83.8158C53.53 83.6058 54.3 83.3858 55.07 83.1658C56.62 82.7958 58.12 82.0958 59.59 81.5158C59.96 81.3758 60.32 81.1958 60.66 80.9958C61 80.8058 61.34 80.6158 61.68 80.4258C62.35 80.0458 62.99 79.6658 63.58 79.2658C68.15 75.7558 72.24 71.8558 74.93 67.0558C70.16 73.1758 63.88 77.9358 56.4 79.9658C54.22 80.8358 51.93 81.5258 49.55 81.9458C50.52 81.6958 51.5 81.4958 52.47 81.2158C53.42 80.8958 53.37 80.5958 52.38 80.7658C52.38 80.7658 56.49 79.7058 56.99 79.5458C56.43 79.7758 55.9 80.0758 55.34 80.2458C55.7 80.1958 56.05 80.0758 56.39 79.9758C57.09 79.6658 57.78 79.3658 58.47 79.0658C57.98 79.2258 57.49 79.3858 57 79.5458C57.61 79.3058 58.2 79.0258 58.79 78.7358C59.26 78.5558 59.72 78.3558 60.19 78.1558C59.63 78.4758 59.07 78.8258 58.47 79.0658C64.18 77.1158 69.7 73.4058 73.23 68.6158C73.97 67.7758 74.67 66.9058 75.33 66.0058C75.24 66.2858 74.74 66.9258 74.93 67.0658C74.75 67.4358 74.59 67.8258 74.38 68.1858C74.17 68.5358 73.95 68.8958 73.74 69.2458C73.31 69.9658 72.87 70.6658 72.45 71.3558C71.96 72.0058 71.47 72.6358 71.01 73.2458C70.52 73.8458 70.1 74.4958 69.58 74.9758C68.77 75.7758 67.91 76.5258 67.03 77.2558C66.1 77.9058 65.15 78.5158 64.22 79.1258C63.76 79.4458 63.28 79.7058 62.79 79.9658C62.31 80.2258 61.84 80.4958 61.37 80.7758C60.9 81.0458 60.46 81.3558 59.99 81.6158C59.53 81.8658 59.07 82.1358 58.63 82.4158C58.13 82.7458 57.31 83.1058 56.4 83.3858C55.48 83.6258 54.47 83.8658 53.63 84.1458C52.94 84.4958 52.15 84.7258 51.35 84.9658L52.67 84.8658C53.11 84.8358 53.55 84.7458 53.98 84.6858C54.06 84.6858 53.89 84.7558 53.53 84.8858C53.35 84.9458 53.13 85.0258 52.86 85.1058C52.59 85.1658 52.28 85.2358 51.94 85.3158C51.25 85.4658 50.44 85.6358 49.57 85.8258C49.13 85.9358 48.67 85.9958 48.2 86.0458C47.73 86.1058 47.25 86.1558 46.77 86.2158C44.85 86.5158 42.91 86.4858 41.47 86.5958C40.75 86.6658 40.17 86.6258 39.77 86.6658C39.38 86.6958 39.18 86.7458 39.24 86.8358C39.24 86.8558 39.45 86.8958 39.83 86.9458C40.21 86.9958 40.77 87.0858 41.48 87.0858C42.89 87.1058 44.87 87.2258 47.13 86.9758C47.69 86.9258 48.28 86.8858 48.87 86.8358C49.46 86.7658 50.07 86.6458 50.68 86.5458C51.91 86.3258 53.18 86.1558 54.42 85.7758C56.93 85.1858 59.38 84.2758 61.57 83.4058C62.5 83.2558 62.39 83.9658 61.86 84.8158C61.33 85.6558 60.33 86.5058 59.74 86.8058C59.62 86.8958 59.47 86.9858 59.34 87.0758C60.77 86.6258 62.22 86.2058 63.56 85.5658L65.12 84.7158C65.64 84.4358 66.16 84.1558 66.64 83.8158C67.62 83.1558 68.6 82.4958 69.58 81.8358C70.35 81.2758 71.06 80.6458 71.8 80.0458C72.52 79.4258 73.29 78.8658 73.93 78.1658C75.26 76.8058 76.64 75.5158 77.79 73.9858C77.21 74.8258 76.64 75.6958 75.97 76.4658C75.68 76.8558 75.35 77.2558 75.02 77.6558C73.73 79.3058 71.94 80.6758 70.06 82.1158C69.06 82.7458 68.02 83.3658 66.95 83.9758C66.68 84.1258 66.42 84.2858 66.14 84.4258L65.29 84.8158C64.72 85.0658 64.14 85.3158 63.56 85.5758C62.96 85.8858 62.38 86.2458 61.76 86.5058L59.91 87.3058L58.05 88.0958L56.15 88.7158C56.75 88.4658 57.33 88.2158 57.87 87.9658C58.41 87.6858 58.9 87.3758 59.34 87.0858L57.99 87.5058C57.54 87.6358 57.07 87.7158 56.61 87.8258C55.69 88.0358 54.77 88.2358 53.86 88.4458C52.47 88.9358 51.3 89.2258 50.38 89.4758C49.46 89.7358 47.22 90.4258 46.4 90.8058C46.58 90.8058 46.76 90.7958 46.94 90.7858C47.71 90.6758 48.49 90.5758 49.27 90.4658C50.04 90.3158 50.81 90.1358 51.58 89.9658C52.35 89.7858 53.12 89.6258 53.88 89.4358C54.63 89.1958 55.38 88.9558 56.14 88.7158C56.07 88.7458 56.02 88.7658 55.96 88.7958C56.79 88.5858 57.64 88.4358 58.46 88.1858L60.92 87.3958C62.59 86.9258 64.14 86.1558 65.72 85.4958C71.15 82.3458 75.93 78.1258 79.71 73.1058C79.12 73.9758 78.53 74.8358 77.94 75.7058C75.4 79.4858 70.96 83.0558 65.72 85.4958C60.55 88.5158 54.83 90.5258 49.03 91.5158C52.98 91.1358 57.51 90.3258 61.13 88.7558C62.99 88.0758 64.69 87.0758 66.4 86.1958C67.26 85.7658 68.03 85.1758 68.83 84.6658C69.62 84.1258 70.43 83.6358 71.17 83.0658C74.13 80.7458 76.85 78.2658 79.12 75.4258C83.7 69.8158 86.89 63.3458 88.35 56.5558C88.38 55.6958 88.41 54.8458 88.48 54.0058M50.7 4.87579C51.45 4.83579 52.31 4.8258 53.22 4.8458C56.84 5.1058 61.27 6.41578 63.34 7.54578C64.68 8.14578 65.94 9.01577 67.3 9.78577C67.99 10.1558 68.62 10.6458 69.28 11.0858C69.94 11.5358 70.6 11.9958 71.27 12.4558C71.9 12.9658 72.53 13.4758 73.16 13.9858C73.78 14.5058 74.46 14.9758 75.03 15.5558C75.62 16.1158 76.21 16.6658 76.8 17.2258C77.09 17.5058 77.4 17.7658 77.68 18.0558C77.95 18.3558 78.22 18.6458 78.48 18.9358C78.15 21.7358 74.21 15.6258 67.29 11.0358C63.84 8.77577 59.72 7.00578 56.08 6.20578C55.16 6.03578 54.29 5.88578 53.47 5.76578C52.65 5.66578 51.86 5.69578 51.16 5.70578C50.46 5.72578 49.96 4.90579 50.71 4.87579M77.06 70.9558C76.2 72.0758 75.38 72.9958 74.49 73.7658C75.13 73.0758 75.72 72.3158 76.34 71.5858L77.26 70.4758C77.55 70.0958 77.81 69.6858 78.09 69.2958C77.75 69.8658 77.44 70.4558 77.05 70.9658M82.2 61.9858L81.66 63.2758C81.47 63.7058 81.23 64.0958 81.02 64.5158L79.68 66.9758C79.16 67.7458 78.63 68.5158 78.11 69.2858C78.77 68.1158 79.53 66.9958 80.09 65.7258C80.68 64.4758 81.35 63.2658 81.81 61.9258C79.77 66.5858 76.77 70.6758 74.32 73.9058L74.49 73.7658C74.36 73.8958 74.24 74.0158 74.12 74.1358C74.19 74.0558 74.25 73.9758 74.32 73.8958C73.62 74.4358 72.91 74.9458 72.18 75.4658C71.81 75.7158 71.46 76.0158 71.04 76.2658C70.63 76.5158 70.21 76.7858 69.78 77.0658L69.4 77.5458L69.11 77.1458C69.56 76.6358 70.04 76.1558 70.53 75.6758C71.03 75.1958 71.48 74.6458 71.99 74.1458C72.49 73.6358 73.01 73.1358 73.53 72.6358C74.03 72.1058 74.51 71.5458 75.01 71.0058C75.5 70.4558 76.03 69.9258 76.5 69.3458L77.84 67.5458C78.77 66.3758 79.44 65.0358 80.08 63.7458C81.59 60.3158 82.94 56.6758 83.46 52.8758C83.66 51.9458 83.71 50.9858 83.78 50.0458C83.83 49.0958 83.95 48.1658 83.87 47.2258C83.83 46.2858 83.78 45.3558 83.72 44.4458C83.58 43.5358 83.41 42.6358 83.24 41.7558C83.19 41.4858 83.16 41.1758 83.13 40.8558C83.09 40.5358 83.05 40.1958 83.01 39.8558C82.94 39.1758 82.89 38.4958 82.81 37.9558C83.06 38.8858 83.33 39.7858 83.6 40.6858C83.8 41.5958 83.99 42.4958 84.19 43.3858C84.42 44.2958 84.51 45.2158 84.61 46.1558C84.69 47.0958 84.85 48.0758 84.78 49.0858C84.78 49.9058 84.78 50.7458 84.75 51.5958C84.74 52.4558 84.56 53.2958 84.45 54.1658C84.25 55.9258 83.71 57.6358 83.2 59.3958C82.93 60.2658 82.54 61.1058 82.2 61.9658" fill="#004282"/>
<path d="M89.0099 37.6057C88.8199 36.9957 88.6199 36.2157 88.2699 35.4857C87.9499 34.7457 87.6499 34.0058 87.5099 33.3958C85.8999 27.6558 82.8599 22.7258 79.1899 18.6558C80.8999 20.6458 82.3999 22.8657 83.7799 25.2357L83.89 25.4358C89.24 35.0258 90.7399 46.1657 88.3799 56.5357C88.3799 57.0757 88.3299 57.5958 88.2699 58.1258C90.6799 51.3358 90.8299 43.8458 89.0099 37.5958" fill="#004282"/>
<path d="M49.7601 42.1758C49.2001 43.7358 48.5201 45.2358 47.7401 46.6758C46.6501 48.6658 45.3601 50.5358 43.9001 52.2458C38.0301 59.0858 29.3301 63.4259 19.6101 63.4659C19.1101 63.4659 18.6101 63.4659 18.1101 63.4359C17.8401 63.4259 17.5701 63.4058 17.3101 63.3958C16.8701 64.7258 16.5101 66.0958 16.2501 67.4958C16.1301 68.1558 16.0201 68.8158 15.9401 69.4858C16.2001 69.5058 16.4601 69.5258 16.7201 69.5458C17.6801 69.6158 18.6601 69.6458 19.6401 69.6458C30.7901 69.6058 40.8101 64.8059 47.7801 57.1859C47.7401 57.1459 47.7101 57.1059 47.6701 57.0659C47.6701 57.0659 47.7401 57.1459 47.7801 57.1859C49.1901 55.6459 50.4801 53.9858 51.6201 52.2258C53.4401 49.4358 54.9001 46.4059 55.9401 43.1859C53.9501 42.6559 51.8801 42.3159 49.7601 42.1859V42.1758ZM51.4701 10.1758C50.5701 11.2258 49.7301 12.3358 48.9701 13.4958C48.4901 14.2258 48.0501 14.9658 47.6301 15.7358C50.1701 20.3158 51.6301 25.5859 51.6501 31.1859C51.6501 32.3259 51.6001 33.4458 51.4901 34.5458C53.5801 34.7358 55.6101 35.0958 57.5901 35.6058C57.7501 34.1458 57.8301 32.6658 57.8301 31.1658C57.8001 23.4058 55.4701 16.1858 51.4801 10.1758M52.1601 52.8159C51.0101 54.5559 49.7201 56.2058 48.3101 57.7458C55.3201 64.9858 65.1401 69.4759 76.0101 69.4359C77.2601 69.4359 78.4901 69.3658 79.7001 69.2458C79.4301 67.1458 78.9501 65.1158 78.2901 63.1658C77.5301 63.2258 76.7601 63.2558 75.9901 63.2558C66.5601 63.2858 58.0601 59.2659 52.1601 52.8159ZM47.5801 5.24585C46.1701 6.78585 44.8801 8.44584 43.7401 10.2058C43.5901 10.4358 43.4501 10.6658 43.3001 10.8858C39.6201 16.7958 37.5101 23.7758 37.5401 31.2458C37.5401 33.0158 37.6701 34.7559 37.9101 36.4659C38.2001 38.5359 38.6501 40.5558 39.2601 42.5058C40.2601 45.7258 41.6801 48.7759 43.4501 51.5659C44.9301 49.8159 46.2201 47.9058 47.2901 45.8658C46.5601 44.4458 45.9301 42.9758 45.4101 41.4458C44.7501 39.4958 44.2701 37.4658 44.0001 35.3658C43.8201 34.0158 43.7301 32.6358 43.7201 31.2358C43.7001 25.9658 44.9501 20.9758 47.1901 16.5758C47.3301 16.2958 47.4801 16.0258 47.6201 15.7458C48.7101 13.7558 50.0001 11.8859 51.4601 10.1859C50.3001 8.43585 49.0001 6.78583 47.5801 5.25583V5.24585ZM37.1601 36.6758C24.7201 40.2758 14.8901 50.0059 11.1501 62.3759C10.5601 64.3259 10.1201 66.3458 9.84009 68.4158C11.8101 68.9258 13.8501 69.2858 15.9301 69.4758C16.1901 67.3758 16.6501 65.3458 17.3001 63.3858C20.5701 53.4958 28.5101 45.7359 38.5101 42.7159C37.9101 40.7659 37.4501 38.7458 37.1501 36.6758H37.1601ZM47.7001 35.1658C46.7201 35.1658 45.7401 35.2058 44.7801 35.2858C45.0601 37.3958 45.5501 39.4258 46.2301 41.3858C46.7301 41.3658 47.2301 41.3459 47.7301 41.3459C48.5001 41.3459 49.2701 41.3658 50.0301 41.4158C52.1501 41.5558 54.2001 41.9059 56.1901 42.4359C66.3001 45.1459 74.4601 52.6659 78.0401 62.4059C78.1401 62.6559 78.2201 62.9158 78.3101 63.1658C78.9701 65.1158 79.4501 67.1458 79.7301 69.2458C81.8101 69.0358 83.8401 68.6658 85.8101 68.1358C85.5201 66.0658 85.0701 64.0558 84.4601 62.1058C84.3801 61.8558 84.3001 61.6158 84.2201 61.3658C80.1501 49.1358 70.0701 39.6558 57.5101 36.3958C55.5401 35.8858 53.5001 35.5258 51.4201 35.3358C50.2001 35.2258 48.9701 35.1658 47.7201 35.1758" fill="white"/>
<path d="M67.6998 46.7257C67.6998 57.8157 58.7098 66.7957 47.6298 66.7957C36.5498 66.7957 27.5598 57.8057 27.5598 46.7257C27.5598 35.6457 36.5498 26.6558 47.6298 26.6558C58.7098 26.6558 67.6998 35.6457 67.6998 46.7257Z" fill="white"/>
<path fill-rule="evenodd" clip-rule="evenodd" d="M39.1399 25.8757L60.5399 35.2457V56.9757H51.0899V43.0757H56.1599V35.8057L39.1399 37.5257V25.8757Z" fill="#8C8F90"/>
<path fill-rule="evenodd" clip-rule="evenodd" d="M44.2099 43.0759V56.9759H51.0899V59.8459H32.6599V38.2959L39.1399 37.5259V43.0759H44.2099Z" fill="#6F2C91"/>
<path d="M48.42 38.8958H46V38.4358H48.99V38.8158L46.98 42.8758H46.43L48.42 38.8958Z" fill="#D1D3D4"/>
<path d="M48.0499 48.0658H45.7298L45.5999 47.7057L48.0898 44.6558H48.5199V47.6458H49.2099V48.0658H48.5199V49.1158H48.0399V48.0658H48.0499ZM48.0499 47.6458V45.3658L46.1998 47.6458H48.0499Z" fill="#D1D3D4"/>
<path d="M47.45 51.4157L46.62 51.6758L46.5 51.2657L47.58 50.8958H47.94V55.3557H47.45V51.4157Z" fill="#D1D3D4"/>
<path d="M113.64 61.4298V49.6998H109V46.3098H122.54V49.6998H117.92V61.4298H113.64Z" fill="white"/>
<path d="M123.76 61.4298V46.3098H130.65C132.03 46.3098 133.23 46.5298 134.23 46.9798C135.24 47.4298 136.01 48.0698 136.55 48.9098C137.09 49.7498 137.36 50.7398 137.36 51.8798C137.36 53.0198 137.09 54.0398 136.55 54.8598C136.01 55.6798 135.23 56.3098 134.23 56.7498C133.22 57.1898 132.03 57.4098 130.65 57.4098H126.11L128.03 55.5998V61.4298H123.75H123.76ZM128.04 56.0898L126.12 54.0998H130.4C131.29 54.0998 131.96 53.9098 132.41 53.5198C132.86 53.1298 133.08 52.5798 133.08 51.8798C133.08 51.1798 132.86 50.6698 132.41 50.2698C131.96 49.8698 131.29 49.6798 130.4 49.6798H126.12L128.04 47.7098V56.0898ZM133.09 61.4298L129.33 55.9198H133.89L137.67 61.4298H133.09Z" fill="white"/>
<path d="M137.84 61.4298L144.51 46.3098H148.72L155.42 61.4298H150.97L145.74 48.4098H147.42L142.19 61.4298H137.83H137.84ZM141.49 58.4698L142.59 55.3398H149.98L151.08 58.4698H141.49Z" fill="white"/>
<path d="M156 61.4298V58.7298L164.87 48.1698L165.39 49.6998H156.17V46.3098H169.19V49.0098L160.29 59.5698L159.78 58.0398H169.52V61.4298H156Z" fill="white"/>
<path d="M174.76 58.0998H182.67V61.4298H170.55V46.3098H182.39V49.6398H174.77V58.1098L174.76 58.0998ZM174.46 52.1598H181.48V55.3298H174.46V52.1598Z" fill="white"/>
<path d="M184.2 61.4298V46.3098H187.72L196.04 56.3698H194.38V46.3098H198.57V61.4298H195.05L186.71 51.3598H188.37V61.4298H184.2Z" fill="white"/>
<path d="M199.95 61.4298V46.3098H207.1C208.75 46.3098 210.22 46.6198 211.48 47.2398C212.75 47.8598 213.74 48.7298 214.45 49.8498C215.16 50.9698 215.52 52.2998 215.52 53.8398C215.52 55.3798 215.16 56.7398 214.45 57.8698C213.74 58.9998 212.75 59.8798 211.48 60.4898C210.21 61.1098 208.75 61.4198 207.1 61.4198H199.95V61.4298ZM204.23 58.0098H206.89C207.77 58.0098 208.53 57.8398 209.17 57.5098C209.81 57.1798 210.31 56.6998 210.67 56.0698C211.03 55.4398 211.21 54.7098 211.21 53.8598C211.21 53.0098 211.03 52.2398 210.67 51.6298C210.31 51.0198 209.81 50.5498 209.17 50.2098C208.53 49.8798 207.77 49.7098 206.89 49.7098H204.23V57.9998V58.0098Z" fill="white"/>
<path d="M214.64 61.4298L221.31 46.3098H225.52L232.22 61.4298H227.77L222.54 48.4098H224.22L218.99 61.4298H214.63H214.64ZM218.29 58.4698L219.39 55.3398H226.78L227.88 58.4698H218.29Z" fill="white"/>
<path d="M110.88 33.29V33.26C110.88 30.37 113.13 28 116.21 28C118.03 28 119.16 28.49 120.2 29.39L118.79 31.09C118.02 30.44 117.29 30.06 116.13 30.06C114.5 30.06 113.21 31.5 113.21 33.23V33.26C113.21 35.12 114.49 36.49 116.29 36.49C117.12 36.49 117.83 36.29 118.4 35.88V34.43H116.15V32.5H120.57V36.92C119.52 37.81 118.08 38.53 116.23 38.53C113.06 38.53 110.88 36.32 110.88 33.3" fill="#8C8F90"/>
<path d="M138.98 28.1699H143.63C144.92 28.1699 145.91 28.5199 146.59 29.1999C147.17 29.7799 147.46 30.5499 147.46 31.5299V31.5599C147.46 33.1999 146.57 34.2299 145.28 34.7099L147.76 38.3399H145.14L142.96 35.0899H141.2V38.3399H138.96V28.1699H138.98ZM143.48 33.1099C144.58 33.1099 145.19 32.5399 145.19 31.6699V31.6399C145.19 30.6699 144.54 30.1899 143.43 30.1899H141.21V33.1099H143.48Z" fill="#8C8F90"/>
<path d="M165.6 33.9899V28.1799H167.84V33.9299C167.84 35.5999 168.65 36.4399 170.03 36.4399C171.41 36.4399 172.22 35.6299 172.22 33.9999V28.1699H174.46V33.9099C174.46 36.9899 172.73 38.4999 170 38.4999C167.27 38.4999 165.6 36.9899 165.6 33.9799" fill="#8C8F90"/>
<path d="M193.01 28.1699H197.16C199.59 28.1699 201.05 29.5899 201.05 31.6899V31.7199C201.05 34.0899 199.22 35.2899 196.94 35.2899H195.24V38.3399H193V28.1699H193.01ZM197.02 33.2999C198.14 33.2999 198.79 32.6299 198.79 31.7599V31.7299C198.79 30.7299 198.09 30.1899 196.97 30.1899H195.24V33.2999H197.01H197.02Z" fill="#8C8F90"/>
<path d="M218.54 33.29V33.26C218.54 30.37 220.82 28 223.96 28C227.1 28 229.35 30.34 229.35 33.23V33.26C229.35 36.15 227.07 38.52 223.93 38.52C220.79 38.52 218.54 36.18 218.54 33.29ZM227.01 33.29V33.26C227.01 31.52 225.73 30.06 223.93 30.06C222.13 30.06 220.88 31.48 220.88 33.23V33.26C220.88 35 222.16 36.46 223.96 36.46C225.76 36.46 227.01 35.04 227.01 33.29Z" fill="#8C8F90"/>
</svg>
