<svg width="227" height="89" viewBox="0 0 227 89" fill="none" xmlns="http://www.w3.org/2000/svg">
<path d="M78.3698 47.7757C78.5798 48.9657 78.4098 50.7157 77.9898 52.4157C77.3698 54.6157 76.6998 56.8357 75.8098 58.9357C77.7198 54.6557 78.8798 49.9957 78.7898 46.1157C78.7098 46.6857 78.4598 47.2257 78.3698 47.7857" fill="#004282"/>
<path d="M82.51 50.9958C82.55 50.5758 82.58 50.1658 82.62 49.7558C82.64 49.3358 82.66 48.9258 82.7 48.5158C83.13 44.7358 83.12 40.3058 82.62 36.5758C82.38 37.2258 82.13 35.3658 81.97 35.3958C81.83 34.9458 81.69 34.4858 81.57 34.0158C81.51 33.7858 81.45 33.5458 81.39 33.3058C81.32 33.0758 81.24 32.8358 81.16 32.5958C80.86 31.6458 80.59 30.6658 80.32 29.6658C80.04 28.6658 79.65 27.6858 79.32 26.6758C79.14 26.1758 78.99 25.6558 78.79 25.1658L78.13 23.6958C77.88 23.1458 78.02 23.0758 77.88 22.4358C77.64 22.1458 77.4 21.8458 77.17 21.5358C76.91 21.2458 76.66 20.9458 76.39 20.6458C75.87 20.0358 75.37 19.4058 74.87 18.7558C74.4 18.0758 73.79 17.4758 73.25 16.8158C72.71 16.1558 72.15 15.4858 71.59 14.8058C70.99 14.1658 70.37 13.5158 69.75 12.8558C69.44 12.5258 69.14 12.1858 68.83 11.8558C68.5 11.5358 68.16 11.2358 67.82 10.9258C67.14 10.3058 66.46 9.67579 65.78 9.05579C65.06 8.47579 64.31 7.92578 63.58 7.36578L62.43 6.55579L61.21 5.83579C60.4 5.34579 59.59 4.85577 58.76 4.35577C59.58 4.78577 60.38 5.28578 61.2 5.76578C61.61 6.01578 62.01 6.25577 62.42 6.50577L63.57 7.36578C64.43 7.99578 65.35 8.54579 66.17 9.21579C67 9.88579 67.82 10.5458 68.64 11.2158C69.46 11.8858 70.18 12.6558 70.96 13.3758L72.11 14.4758L73.16 15.6658C66.47 7.73577 57.6 2.53579 47.8 0.625794C43.11 -0.254206 38.43 -0.174228 34.02 0.665772C29.62 1.51577 25.44 3.04579 21.74 5.30579C20.95 5.69579 20.23 6.21578 19.49 6.67578C18.76 7.15578 17.98 7.56578 17.27 8.07578L15.14 9.60577C14.79 9.86577 14.41 10.0958 14.08 10.3758L13.08 11.2258C13.23 10.9558 13.38 10.6758 13.52 10.4058C12.68 11.1158 11.86 11.8258 11.04 12.5458C10.28 13.3158 9.56 14.1358 8.84 14.9358C8.08 15.7158 7.51 16.6558 6.87 17.5358C6.56 17.9858 6.25001 18.4458 5.93001 18.8958C5.67001 19.3858 5.4 19.8658 5.13 20.3658C4.94 20.7258 4.75 21.0758 4.56 21.4358C2.52 25.5758 1.27 29.6658 0.559998 33.8458C0.419998 34.8958 0.279999 35.9458 0.139999 37.0058C0.0899994 38.0758 0.05 39.1458 0 40.2258C0.02 42.3958 0.0900012 44.6158 0.470001 46.8858C0.560001 47.4458 0.61 48.0058 0.75 48.5558L1.19 50.1958L1.64 51.8258C1.81 52.3658 2.02 52.8858 2.2 53.4258C2.9 54.9558 2.92001 52.0258 3.96001 54.5658C3.96001 54.4158 3.96 54.2558 3.98 54.1158C3.55 53.1758 3.1 52.2958 2.81 51.5558C2.57 50.7958 2.44001 50.2058 2.54001 49.8858C2.72001 49.5558 3 49.8558 3.34 50.4558C4.63 55.4458 6.98001 60.2358 10.43 64.5058C11.99 66.4358 13.71 68.1658 15.55 69.6958C15.06 69.5958 14.59 69.4858 14.12 69.3958C14.53 69.7458 14.94 70.1058 15.37 70.4358C15.82 70.7358 16.28 71.0258 16.72 71.3158C17.62 71.8858 18.47 72.4558 19.35 72.8258C19.11 72.7458 19.06 72.8758 19.01 72.9558C20.31 73.6758 21.39 74.3558 22.61 74.7758C23.8 75.2458 24.98 75.7858 26.43 76.2458C22.05 75.6058 17.17 72.8658 13.18 69.2358C12.84 69.1858 12.51 69.1558 12.21 69.1558C16.22 73.2158 21.33 76.2858 26.81 77.9658L27.83 78.2958C28.18 78.3958 28.53 78.4558 28.88 78.5358L30.97 78.9858C31.66 79.1658 32.38 79.1858 33.08 79.2858L35.19 79.5058C36.61 79.5058 38.01 79.5658 39.41 79.4858L41.49 79.2758L42.52 79.1658C42.86 79.1158 43.2 79.0358 43.54 78.9658C42.63 79.2258 41.71 79.3158 40.78 79.4758C39.85 79.6158 38.92 79.7958 37.98 79.8258C33.48 80.1258 28.51 79.2858 23.85 77.3858C19.18 75.4958 14.85 72.6058 11.23 69.2458C10.68 69.3758 10.3 69.6958 10.21 70.3058C13.96 74.4358 18.83 77.5258 24.05 79.4458C29.28 81.3858 34.83 82.2058 40.37 82.1958L40.63 82.1358C41.22 81.9958 41.85 81.8658 42.51 81.7458C43.17 81.6358 43.86 81.4258 44.58 81.2858C45.29 81.1358 46.04 80.9758 46.79 80.8158C47.53 80.6058 48.3 80.3858 49.07 80.1658C50.62 79.7958 52.12 79.0958 53.59 78.5158C53.96 78.3758 54.32 78.1958 54.66 77.9958C55 77.8058 55.34 77.6158 55.68 77.4258C56.35 77.0458 56.99 76.6658 57.58 76.2658C62.15 72.7558 66.24 68.8558 68.93 64.0558C64.16 70.1758 57.88 74.9358 50.4 76.9658C48.22 77.8358 45.93 78.5258 43.55 78.9458C44.52 78.6958 45.5 78.4958 46.47 78.2158C47.42 77.8958 47.37 77.5958 46.38 77.7658C46.38 77.7658 50.49 76.7058 50.99 76.5458C50.43 76.7758 49.9 77.0758 49.34 77.2458C49.7 77.1958 50.05 77.0758 50.39 76.9758C51.09 76.6658 51.78 76.3658 52.47 76.0658C51.98 76.2258 51.49 76.3858 51 76.5458C51.61 76.3058 52.2 76.0258 52.79 75.7358C53.26 75.5558 53.72 75.3558 54.19 75.1558C53.63 75.4758 53.07 75.8258 52.47 76.0658C58.18 74.1158 63.7 70.4058 67.23 65.6158C67.97 64.7758 68.67 63.9058 69.33 63.0058C69.24 63.2858 68.74 63.9258 68.93 64.0658C68.75 64.4358 68.59 64.8258 68.38 65.1858C68.17 65.5358 67.95 65.8958 67.74 66.2458C67.31 66.9658 66.87 67.6658 66.45 68.3558C65.96 69.0058 65.47 69.6358 65.01 70.2458C64.52 70.8458 64.1 71.4958 63.58 71.9758C62.77 72.7758 61.91 73.5258 61.03 74.2558C60.1 74.9058 59.15 75.5158 58.22 76.1258C57.76 76.4458 57.28 76.7058 56.79 76.9658C56.31 77.2258 55.84 77.4958 55.37 77.7758C54.9 78.0458 54.46 78.3558 53.99 78.6158C53.53 78.8658 53.07 79.1358 52.63 79.4158C52.13 79.7458 51.31 80.1058 50.4 80.3858C49.48 80.6258 48.47 80.8658 47.63 81.1458C46.94 81.4958 46.15 81.7258 45.35 81.9658L46.67 81.8658C47.11 81.8358 47.55 81.7458 47.98 81.6858C48.06 81.6858 47.89 81.7558 47.53 81.8858C47.35 81.9458 47.13 82.0258 46.86 82.1058C46.59 82.1658 46.28 82.2358 45.94 82.3158C45.25 82.4658 44.44 82.6358 43.57 82.8258C43.13 82.9358 42.67 82.9958 42.2 83.0458C41.73 83.1058 41.25 83.1558 40.77 83.2158C38.85 83.5158 36.91 83.4858 35.47 83.5958C34.75 83.6658 34.17 83.6258 33.77 83.6658C33.38 83.6958 33.18 83.7458 33.24 83.8358C33.24 83.8558 33.45 83.8958 33.83 83.9458C34.21 83.9958 34.77 84.0858 35.48 84.0858C36.89 84.1058 38.87 84.2258 41.13 83.9758C41.69 83.9258 42.28 83.8858 42.87 83.8358C43.46 83.7658 44.07 83.6458 44.68 83.5458C45.91 83.3258 47.18 83.1558 48.42 82.7758C50.93 82.1858 53.38 81.2758 55.57 80.4058C56.5 80.2558 56.39 80.9658 55.86 81.8158C55.33 82.6558 54.33 83.5058 53.74 83.8058C53.62 83.8958 53.47 83.9858 53.34 84.0758C54.77 83.6258 56.22 83.2058 57.56 82.5658L59.12 81.7158C59.64 81.4358 60.16 81.1558 60.64 80.8158C61.62 80.1558 62.6 79.4958 63.58 78.8358C64.35 78.2758 65.06 77.6458 65.8 77.0458C66.52 76.4258 67.29 75.8658 67.93 75.1658C69.26 73.8058 70.64 72.5158 71.79 70.9858C71.21 71.8258 70.64 72.6958 69.97 73.4658C69.68 73.8558 69.35 74.2558 69.02 74.6558C67.73 76.3058 65.94 77.6758 64.06 79.1158C63.06 79.7458 62.02 80.3658 60.95 80.9758C60.68 81.1258 60.42 81.2858 60.14 81.4258L59.29 81.8158C58.72 82.0658 58.14 82.3158 57.56 82.5758C56.96 82.8858 56.38 83.2458 55.76 83.5058L53.91 84.3058L52.05 85.0958L50.15 85.7158C50.75 85.4658 51.33 85.2158 51.87 84.9658C52.41 84.6858 52.9 84.3758 53.34 84.0858L51.99 84.5058C51.54 84.6358 51.07 84.7158 50.61 84.8258C49.69 85.0358 48.77 85.2358 47.86 85.4458C46.47 85.9358 45.3 86.2258 44.38 86.4758C43.46 86.7358 41.22 87.4258 40.4 87.8058C40.58 87.8058 40.76 87.7958 40.94 87.7858C41.71 87.6758 42.49 87.5758 43.27 87.4658C44.04 87.3158 44.81 87.1358 45.58 86.9658C46.35 86.7858 47.12 86.6258 47.88 86.4358C48.63 86.1958 49.38 85.9558 50.14 85.7158C50.07 85.7458 50.02 85.7658 49.96 85.7958C50.79 85.5858 51.64 85.4358 52.46 85.1858L54.92 84.3958C56.59 83.9258 58.14 83.1558 59.72 82.4958C65.15 79.3458 69.93 75.1258 73.71 70.1058C73.12 70.9758 72.53 71.8358 71.94 72.7058C69.4 76.4858 64.96 80.0558 59.72 82.4958C54.55 85.5158 48.83 87.5258 43.03 88.5158C46.98 88.1358 51.51 87.3258 55.13 85.7558C56.99 85.0758 58.69 84.0758 60.4 83.1958C61.26 82.7658 62.03 82.1758 62.83 81.6658C63.62 81.1258 64.43 80.6358 65.17 80.0658C68.13 77.7458 70.85 75.2658 73.12 72.4258C77.7 66.8158 80.89 60.3458 82.35 53.5558C82.38 52.6958 82.41 51.8458 82.48 51.0058M44.7 1.87579C45.45 1.83579 46.31 1.8258 47.22 1.8458C50.84 2.1058 55.27 3.41578 57.34 4.54578C58.68 5.14578 59.94 6.01577 61.3 6.78577C61.99 7.15577 62.62 7.64579 63.28 8.08579C63.94 8.53579 64.6 8.99578 65.27 9.45578C65.9 9.96578 66.53 10.4758 67.16 10.9858C67.78 11.5058 68.46 11.9758 69.03 12.5558C69.62 13.1158 70.21 13.6658 70.8 14.2258C71.09 14.5058 71.4 14.7658 71.68 15.0558C71.95 15.3558 72.22 15.6458 72.48 15.9358C72.15 18.7358 68.21 12.6258 61.29 8.03577C57.84 5.77577 53.72 4.00578 50.08 3.20578C49.16 3.03578 48.29 2.88578 47.47 2.76578C46.65 2.66578 45.86 2.69578 45.16 2.70578C44.46 2.72578 43.96 1.90579 44.71 1.87579M71.06 67.9558C70.2 69.0758 69.38 69.9958 68.49 70.7658C69.13 70.0758 69.72 69.3158 70.34 68.5858L71.26 67.4758C71.55 67.0958 71.81 66.6858 72.09 66.2958C71.75 66.8658 71.44 67.4558 71.05 67.9658M76.2 58.9858L75.66 60.2758C75.47 60.7058 75.23 61.0958 75.02 61.5158L73.68 63.9758C73.16 64.7458 72.63 65.5158 72.11 66.2858C72.77 65.1158 73.53 63.9958 74.09 62.7258C74.68 61.4758 75.35 60.2658 75.81 58.9258C73.77 63.5858 70.77 67.6758 68.32 70.9058L68.49 70.7658C68.36 70.8958 68.24 71.0158 68.12 71.1358C68.19 71.0558 68.25 70.9758 68.32 70.8958C67.62 71.4358 66.91 71.9458 66.18 72.4658C65.81 72.7158 65.46 73.0158 65.04 73.2658C64.63 73.5158 64.21 73.7858 63.78 74.0658L63.4 74.5458L63.11 74.1458C63.56 73.6358 64.04 73.1558 64.53 72.6758C65.03 72.1958 65.48 71.6458 65.99 71.1458C66.49 70.6358 67.01 70.1358 67.53 69.6358C68.03 69.1058 68.51 68.5458 69.01 68.0058C69.5 67.4558 70.03 66.9258 70.5 66.3458L71.84 64.5458C72.77 63.3758 73.44 62.0358 74.08 60.7458C75.59 57.3158 76.94 53.6758 77.46 49.8758C77.66 48.9458 77.71 47.9858 77.78 47.0458C77.83 46.0958 77.95 45.1658 77.87 44.2258C77.83 43.2858 77.78 42.3558 77.72 41.4458C77.58 40.5358 77.41 39.6358 77.24 38.7558C77.19 38.4858 77.16 38.1758 77.13 37.8558C77.09 37.5358 77.05 37.1958 77.01 36.8558C76.94 36.1758 76.89 35.4958 76.81 34.9558C77.06 35.8858 77.33 36.7858 77.6 37.6858C77.8 38.5958 77.99 39.4958 78.19 40.3858C78.42 41.2958 78.51 42.2158 78.61 43.1558C78.69 44.0958 78.85 45.0758 78.78 46.0858C78.78 46.9058 78.78 47.7458 78.75 48.5958C78.74 49.4558 78.56 50.2958 78.45 51.1658C78.25 52.9258 77.71 54.6358 77.2 56.3958C76.93 57.2658 76.54 58.1058 76.2 58.9658" fill="#004282"/>
<path d="M81.24 58.8058C81.51 58.2058 81.93 56.9657 82.16 56.3557C82.2 55.9457 82.24 55.5457 82.28 55.1357C82.07 55.7057 81.85 56.2857 81.63 56.8557C81.5 57.5057 81.41 58.1658 81.24 58.8058Z" fill="#004282"/>
<path d="M83.0099 34.6057C82.8199 33.9957 82.6199 33.2157 82.2699 32.4857C81.9499 31.7457 81.6499 31.0058 81.5099 30.3958C79.8999 24.6558 76.8599 19.7258 73.1899 15.6558C74.8999 17.6458 76.3999 19.8657 77.7799 22.2357L77.89 22.4358C83.24 32.0258 84.7399 43.1657 82.3799 53.5357C82.3799 54.0757 82.3299 54.5958 82.2699 55.1258C84.6799 48.3358 84.8299 40.8458 83.0099 34.5958" fill="#004282"/>
<path d="M43.7601 39.1758C43.2001 40.7358 42.5201 42.2358 41.7401 43.6758C40.6501 45.6658 39.3601 47.5358 37.9001 49.2458C32.0301 56.0858 23.3301 60.4259 13.6101 60.4659C13.1101 60.4659 12.6101 60.4659 12.1101 60.4359C11.8401 60.4259 11.5701 60.4058 11.3101 60.3958C10.8701 61.7258 10.5101 63.0958 10.2501 64.4958C10.1301 65.1558 10.0201 65.8158 9.94009 66.4858C10.2001 66.5058 10.4601 66.5258 10.7201 66.5458C11.6801 66.6158 12.6601 66.6458 13.6401 66.6458C24.7901 66.6058 34.8101 61.8059 41.7801 54.1859C41.7401 54.1459 41.7101 54.1059 41.6701 54.0659C41.6701 54.0659 41.7401 54.1459 41.7801 54.1859C43.1901 52.6459 44.4801 50.9858 45.6201 49.2258C47.4401 46.4358 48.9001 43.4059 49.9401 40.1859C47.9501 39.6559 45.8801 39.3159 43.7601 39.1859V39.1758ZM45.4701 7.17584C44.5701 8.22584 43.7301 9.33585 42.9701 10.4958C42.4901 11.2258 42.0501 11.9658 41.6301 12.7358C44.1701 17.3158 45.6301 22.5859 45.6501 28.1859C45.6501 29.3259 45.6001 30.4458 45.4901 31.5458C47.5801 31.7358 49.6101 32.0958 51.5901 32.6058C51.7501 31.1458 51.8301 29.6658 51.8301 28.1658C51.8001 20.4058 49.4701 13.1858 45.4801 7.17584M46.1601 49.8159C45.0101 51.5559 43.7201 53.2058 42.3101 54.7458C49.3201 61.9858 59.1401 66.4759 70.0101 66.4359C71.2601 66.4359 72.4901 66.3658 73.7001 66.2458C73.4301 64.1458 72.9501 62.1158 72.2901 60.1658C71.5301 60.2258 70.7601 60.2558 69.9901 60.2558C60.5601 60.2858 52.0601 56.2659 46.1601 49.8159ZM41.5801 2.24585C40.1701 3.78585 38.8801 5.44584 37.7401 7.20584C37.5901 7.43584 37.4501 7.66583 37.3001 7.88583C33.6201 13.7958 31.5101 20.7758 31.5401 28.2458C31.5401 30.0158 31.6701 31.7559 31.9101 33.4659C32.2001 35.5359 32.6501 37.5558 33.2601 39.5058C34.2601 42.7258 35.6801 45.7759 37.4501 48.5659C38.9301 46.8159 40.2201 44.9058 41.2901 42.8658C40.5601 41.4458 39.9301 39.9758 39.4101 38.4458C38.7501 36.4958 38.2701 34.4658 38.0001 32.3658C37.8201 31.0158 37.7301 29.6358 37.7201 28.2358C37.7001 22.9658 38.9501 17.9758 41.1901 13.5758C41.3301 13.2958 41.4801 13.0258 41.6201 12.7458C42.7101 10.7558 44.0001 8.88585 45.4601 7.18585C44.3001 5.43585 43.0001 3.78583 41.5801 2.25583V2.24585ZM31.1601 33.6758C18.7201 37.2758 8.89009 47.0059 5.15009 59.3759C4.56009 61.3259 4.12009 63.3458 3.84009 65.4158C5.81009 65.9258 7.8501 66.2858 9.9301 66.4758C10.1901 64.3758 10.6501 62.3458 11.3001 60.3858C14.5701 50.4958 22.5101 42.7359 32.5101 39.7159C31.9101 37.7659 31.4501 35.7458 31.1501 33.6758H31.1601ZM41.7001 32.1658C40.7201 32.1658 39.7401 32.2058 38.7801 32.2858C39.0601 34.3958 39.5501 36.4258 40.2301 38.3858C40.7301 38.3658 41.2301 38.3459 41.7301 38.3459C42.5001 38.3459 43.2701 38.3658 44.0301 38.4158C46.1501 38.5558 48.2001 38.9059 50.1901 39.4359C60.3001 42.1459 68.4601 49.6659 72.0401 59.4059C72.1401 59.6559 72.2201 59.9158 72.3101 60.1658C72.9701 62.1158 73.4501 64.1458 73.7301 66.2458C75.8101 66.0358 77.8401 65.6658 79.8101 65.1358C79.5201 63.0658 79.0701 61.0558 78.4601 59.1058C78.3801 58.8558 78.3001 58.6158 78.2201 58.3658C74.1501 46.1358 64.0701 36.6558 51.5101 33.3958C49.5401 32.8858 47.5001 32.5258 45.4201 32.3358C44.2001 32.2258 42.9701 32.1658 41.7201 32.1758" fill="white"/>
<path d="M61.6998 43.7257C61.6998 54.8157 52.7098 63.7957 41.6298 63.7957C30.5498 63.7957 21.5598 54.8057 21.5598 43.7257C21.5598 32.6457 30.5498 23.6558 41.6298 23.6558C52.7098 23.6558 61.6998 32.6457 61.6998 43.7257Z" fill="white"/>
<path fill-rule="evenodd" clip-rule="evenodd" d="M33.1399 22.8757L54.5399 32.2457V53.9757H45.0899V40.0757H50.1599V32.8057L33.1399 34.5257V22.8757Z" fill="#8C8F90"/>
<path fill-rule="evenodd" clip-rule="evenodd" d="M38.2099 40.0759V53.9759H45.0899V56.8459H26.6599V35.2959L33.1399 34.5259V40.0759H38.2099Z" fill="#6F2C91"/>
<path d="M42.42 35.8958H40V35.4358H42.99V35.8158L40.98 39.8758H40.43L42.42 35.8958Z" fill="#D1D3D4"/>
<path d="M42.0499 45.0658H39.7298L39.5999 44.7057L42.0898 41.6558H42.5199V44.6458H43.2099V45.0658H42.5199V46.1158H42.0399V45.0658H42.0499ZM42.0499 44.6458V42.3658L40.1998 44.6458H42.0499Z" fill="#D1D3D4"/>
<path d="M41.45 48.4157L40.62 48.6758L40.5 48.2657L41.58 47.8958H41.94V52.3557H41.45V48.4157Z" fill="#D1D3D4"/>
<path d="M107.64 58.4298V46.6998H103V43.3098H116.54V46.6998H111.92V58.4298H107.64Z" fill="#6F2C91"/>
<path d="M117.76 58.4298V43.3098H124.65C126.03 43.3098 127.23 43.5298 128.23 43.9798C129.24 44.4298 130.01 45.0698 130.55 45.9098C131.09 46.7498 131.36 47.7398 131.36 48.8798C131.36 50.0198 131.09 51.0398 130.55 51.8598C130.01 52.6798 129.23 53.3098 128.23 53.7498C127.22 54.1898 126.03 54.4098 124.65 54.4098H120.11L122.03 52.5998V58.4298H117.75H117.76ZM122.04 53.0898L120.12 51.0998H124.4C125.29 51.0998 125.96 50.9098 126.41 50.5198C126.86 50.1298 127.08 49.5798 127.08 48.8798C127.08 48.1798 126.86 47.6698 126.41 47.2698C125.96 46.8698 125.29 46.6798 124.4 46.6798H120.12L122.04 44.7098V53.0898ZM127.09 58.4298L123.33 52.9198H127.89L131.67 58.4298H127.09Z" fill="#6F2C91"/>
<path d="M131.84 58.4298L138.51 43.3098H142.72L149.42 58.4298H144.97L139.74 45.4098H141.42L136.19 58.4298H131.83H131.84ZM135.49 55.4698L136.59 52.3398H143.98L145.08 55.4698H135.49Z" fill="#6F2C91"/>
<path d="M150 58.4298V55.7298L158.87 45.1698L159.39 46.6998H150.17V43.3098H163.19V46.0098L154.29 56.5698L153.78 55.0398H163.52V58.4298H150Z" fill="#6F2C91"/>
<path d="M168.76 55.0998H176.67V58.4298H164.55V43.3098H176.39V46.6398H168.77V55.1098L168.76 55.0998ZM168.46 49.1598H175.48V52.3298H168.46V49.1598Z" fill="#6F2C91"/>
<path d="M178.2 58.4298V43.3098H181.72L190.04 53.3698H188.38V43.3098H192.57V58.4298H189.05L180.71 48.3598H182.37V58.4298H178.2Z" fill="#6F2C91"/>
<path d="M193.95 58.4298V43.3098H201.1C202.75 43.3098 204.22 43.6198 205.48 44.2398C206.75 44.8598 207.74 45.7298 208.45 46.8498C209.16 47.9698 209.52 49.2998 209.52 50.8398C209.52 52.3798 209.16 53.7398 208.45 54.8698C207.74 55.9998 206.75 56.8798 205.48 57.4898C204.21 58.1098 202.75 58.4198 201.1 58.4198H193.95V58.4298ZM198.23 55.0098H200.89C201.77 55.0098 202.53 54.8398 203.17 54.5098C203.81 54.1798 204.31 53.6998 204.67 53.0698C205.03 52.4398 205.21 51.7098 205.21 50.8598C205.21 50.0098 205.03 49.2398 204.67 48.6298C204.31 48.0198 203.81 47.5498 203.17 47.2098C202.53 46.8798 201.77 46.7098 200.89 46.7098H198.23V54.9998V55.0098Z" fill="#6F2C91"/>
<path d="M208.64 58.4298L215.31 43.3098H219.52L226.22 58.4298H221.77L216.54 45.4098H218.22L212.99 58.4298H208.63H208.64ZM212.29 55.4698L213.39 52.3398H220.78L221.88 55.4698H212.29Z" fill="#6F2C91"/>
<path d="M104.88 30.29V30.26C104.88 27.37 107.13 25 110.21 25C112.03 25 113.16 25.49 114.2 26.39L112.79 28.09C112.02 27.44 111.29 27.06 110.13 27.06C108.5 27.06 107.21 28.5 107.21 30.23V30.26C107.21 32.12 108.49 33.49 110.29 33.49C111.12 33.49 111.83 33.29 112.4 32.88V31.43H110.15V29.5H114.57V33.92C113.52 34.81 112.08 35.53 110.23 35.53C107.06 35.53 104.88 33.32 104.88 30.3" fill="#004282"/>
<path d="M132.98 25.1699H137.63C138.92 25.1699 139.91 25.5199 140.59 26.1999C141.17 26.7799 141.46 27.5499 141.46 28.5299V28.5599C141.46 30.1999 140.57 31.2299 139.28 31.7099L141.76 35.3399H139.14L136.96 32.0899H135.2V35.3399H132.96V25.1699H132.98ZM137.48 30.1099C138.58 30.1099 139.19 29.5399 139.19 28.6699V28.6399C139.19 27.6699 138.54 27.1899 137.43 27.1899H135.21V30.1099H137.48Z" fill="#004282"/>
<path d="M159.6 30.9899V25.1799H161.84V30.9299C161.84 32.5999 162.65 33.4399 164.03 33.4399C165.41 33.4399 166.22 32.6299 166.22 30.9999V25.1699H168.46V30.9099C168.46 33.9899 166.73 35.4999 164 35.4999C161.27 35.4999 159.6 33.9899 159.6 30.9799" fill="#004282"/>
<path d="M187.01 25.1699H191.16C193.59 25.1699 195.05 26.5899 195.05 28.6899V28.7199C195.05 31.0899 193.22 32.2899 190.94 32.2899H189.24V35.3399H187V25.1699H187.01ZM191.02 30.2999C192.14 30.2999 192.79 29.6299 192.79 28.7599V28.7299C192.79 27.7299 192.09 27.1899 190.97 27.1899H189.24V30.2999H191.01H191.02Z" fill="#004282"/>
<path d="M212.54 30.29V30.26C212.54 27.37 214.82 25 217.96 25C221.1 25 223.35 27.34 223.35 30.23V30.26C223.35 33.15 221.07 35.52 217.93 35.52C214.79 35.52 212.54 33.18 212.54 30.29ZM221.01 30.29V30.26C221.01 28.52 219.73 27.06 217.93 27.06C216.13 27.06 214.88 28.48 214.88 30.23V30.26C214.88 32 216.16 33.46 217.96 33.46C219.76 33.46 221.01 32.04 221.01 30.29Z" fill="#004282"/>
</svg>
